# Blender v2.79 (sub 0) OBJ File: 'meshes.blend'
# www.blender.org
v -7.089468 -57.451832 27.295174
v 44.549114 -17.123508 42.639908
v -17.882654 -0.483419 61.448978
v -59.982887 -18.682796 12.206828
v -23.569803 -46.571091 -37.035091
v 41.034298 -45.606995 -18.226036
v 23.569803 46.571091 37.035091
v -41.034298 45.606995 18.226036
v -44.549114 17.123508 -42.639908
v 17.882654 0.483419 -61.448978
v 59.982887 18.682796 -12.206828
v 7.089468 57.451832 -27.295174
v -14.678179 -34.053596 52.162281
v 22.018030 -43.834316 41.106682
v 15.674148 -10.349083 61.181839
v 50.304455 -36.871914 14.350053
v 19.952085 -60.576370 5.330828
v -39.424088 -44.750801 23.218685
v -45.768360 -11.265675 43.293678
v -18.020975 -61.143044 -5.724762
v -49.111164 -38.355213 -14.593557
v 10.265373 -54.180855 -32.481636
v 61.442482 0.916620 17.887997
v 59.376534 -15.825500 -17.887997
v 3.342828 27.089703 57.887589
v 40.039501 17.308929 46.832027
v -59.376534 15.825500 17.887997
v -34.630695 26.523117 46.832027
v -40.039501 -17.308929 -46.832027
v -61.442482 -0.916620 -17.887997
v 34.630695 -26.523117 -46.832027
v -3.342828 -27.089703 -57.887589
v 49.111164 38.355213 14.593557
v -10.265373 54.180855 32.481636
v -50.304455 36.871914 -14.350053
v -15.674148 10.349083 -61.181839
v 45.768360 11.265675 -43.293678
v 18.020973 61.143040 5.724764
v 39.424088 44.750801 -23.218685
v -19.952085 60.576370 -5.330828
v -22.018030 43.834316 -41.106682
v 14.678178 34.053593 -52.162277
vt 0.995999 0.065650
vt 1.000269 0.260593
vt 1.115525 0.165165
vt 0.172623 0.364695
vt 0.245837 0.197632
vt 0.115525 0.165165
vt 0.884243 0.176263
vt 0.776821 0.028714
vt 1.224034 0.021857
vt 0.252196 0.488903
vt 0.002388 0.527048
vt 0.060893 0.731881
vt 0.085782 0.436368
vt 0.830892 0.383576
vt 0.842413 0.654406
vt 0.917896 0.447466
vt 0.649635 0.132549
vt 0.663125 0.363547
vt 0.758354 0.215586
vt 0.359616 0.120883
vt 0.447029 0.261261
vt 0.508665 0.061179
vt 0.163125 0.636453
vt 1.002388 0.527048
vt 0.947029 0.738739
vt 1.060893 0.731881
vt 0.752196 0.511097
vt 0.560893 0.268119
vt 0.342413 0.345594
vt 0.149635 0.867451
vt 0.276821 0.971286
vt 0.258354 0.784415
vt 0.859616 0.879117
vt 0.724034 0.978143
vt 1.008665 0.938821
vt 0.672623 0.635305
vt 0.615525 0.834835
vt 0.745837 0.802368
vt 0.502388 0.472952
vt 0.500269 0.739407
vt 0.585782 0.563632
vt 0.330892 0.616424
vt 0.384243 0.823737
vt 0.417896 0.552534
vt 0.495998 0.934350
vt 0.008665 0.938821
vt 0.224034 0.021857
vt 0.000269 0.260593
vn -0.0136 0.7262 -0.6874
vn -0.6357 0.5663 -0.5246
vn 0.3604 0.7317 -0.5785
vn 0.3807 0.8966 -0.2263
vn 0.0194 0.9929 -0.1174
vn -0.8756 0.2940 -0.3833
vn -0.0372 -0.0998 -0.9943
vn 0.9031 0.0542 -0.4259
vn 0.6460 0.5432 0.5364
vn -0.4533 0.6913 0.5627
vn -0.8131 -0.0358 -0.5810
vn 0.2689 -0.3241 -0.9070
vn 0.9985 -0.0087 -0.0536
vn 0.3675 0.4746 0.7998
vn -0.7522 0.4579 0.4739
vn -0.5120 -0.8099 -0.2862
vn 0.3640 -0.8985 -0.2452
vn 0.6357 -0.5663 0.5246
vn -0.0724 -0.2723 0.9595
vn -0.7817 -0.4229 0.4583
vn -0.3604 -0.7317 0.5785
vn -0.5568 -0.5022 0.6617
vn -0.4463 -0.2779 0.8506
vn 0.0136 -0.7262 0.6874
vn 0.1283 -0.4919 0.8611
vn 0.4249 -0.4049 0.8096
vn 0.2243 -0.8876 0.4024
vn 0.5145 -0.7877 0.3389
vn 0.6077 -0.7932 0.0398
vn -0.0194 -0.9929 0.1174
vn 0.0680 -0.9807 -0.1833
vn -0.1506 -0.9062 -0.3951
vn -0.3807 -0.8966 0.2263
vn -0.5941 -0.8042 0.0162
vn -0.8021 -0.5877 0.1061
vn -0.9031 -0.0542 0.4259
vn -0.7793 0.1733 0.6022
vn -0.5678 0.0907 0.8182
vn 0.0372 0.0998 0.9943
vn 0.3293 0.1898 0.9250
vn 0.5346 -0.0328 0.8445
vn 0.8756 -0.2940 0.3833
vn 0.9541 -0.2887 0.0800
vn 0.8476 -0.5209 -0.1015
vn 0.4533 -0.6913 -0.5627
vn 0.2317 -0.6010 -0.7649
vn -0.0613 -0.6990 -0.7125
vn -0.6460 -0.5432 -0.5364
vn -0.8396 -0.3155 -0.4422
vn -0.9361 -0.3210 -0.1441
vn -0.2689 0.3241 0.9070
vn -0.2317 0.6010 0.7649
vn 0.0613 0.6990 0.7125
vn 0.8131 0.0358 0.5810
vn 0.8396 0.3155 0.4422
vn 0.9361 0.3210 0.1441
vn 0.7522 -0.4579 -0.4739
vn 0.7793 -0.1733 -0.6022
vn 0.5678 -0.0907 -0.8182
vn -0.3675 -0.4746 -0.7998
vn -0.3293 -0.1898 -0.9250
vn -0.5346 0.0328 -0.8445
vn -0.9985 0.0087 0.0536
vn -0.9541 0.2887 -0.0800
vn -0.8476 0.5209 0.1015
vn -0.3640 0.8985 0.2452
vn -0.0680 0.9807 0.1833
vn 0.1506 0.9062 0.3951
vn 0.5120 0.8099 0.2862
vn 0.5941 0.8042 -0.0162
vn 0.8021 0.5877 -0.1061
vn 0.7817 0.4229 -0.4583
vn 0.5568 0.5022 -0.6617
vn 0.4463 0.2779 -0.8506
vn -0.6077 0.7932 -0.0398
vn -0.5145 0.7877 -0.3389
vn -0.2243 0.8876 -0.4024
vn 0.0724 0.2723 -0.9595
vn -0.1283 0.4919 -0.8611
vn -0.4249 0.4049 -0.8096
s off
f 1/1/1 13/2/1 14/3/1
f 2/4/2 16/5/2 14/6/2
f 1/1/3 18/7/3 13/2/3
f 1/1/4 20/8/4 18/7/4
f 1/1/5 17/9/5 20/8/5
f 2/4/6 23/10/6 16/5/6
f 3/11/7 25/12/7 15/13/7
f 4/14/8 27/15/8 19/16/8
f 5/17/9 29/18/9 21/19/9
f 6/20/10 31/21/10 22/22/10
f 2/4/11 26/23/11 23/10/11
f 3/24/12 28/25/12 25/26/12
f 4/14/13 30/27/13 27/15/13
f 5/17/14 32/28/14 29/18/14
f 6/20/15 24/29/15 31/21/15
f 7/30/16 38/31/16 33/32/16
f 8/33/17 40/34/17 34/35/17
f 9/36/18 41/37/18 35/38/18
f 10/39/19 42/40/19 36/41/19
f 11/42/20 39/43/20 37/44/20
f 39/43/21 12/45/21 42/40/21
f 39/43/22 42/40/22 37/44/22
f 37/44/23 42/40/23 10/39/23
f 42/40/24 12/45/24 41/37/24
f 42/40/25 41/37/25 36/41/25
f 36/41/26 41/37/26 9/36/26
f 41/37/27 12/45/27 40/34/27
f 41/37/28 40/34/28 35/38/28
f 35/38/29 40/34/29 8/33/29
f 40/34/30 12/45/30 38/31/30
f 40/34/31 38/31/31 34/35/31
f 34/46/32 38/31/32 7/30/32
f 38/31/33 12/45/33 39/43/33
f 38/31/34 39/43/34 33/32/34
f 33/32/35 39/43/35 11/42/35
f 24/29/36 11/42/36 37/44/36
f 24/29/37 37/44/37 31/21/37
f 31/21/38 37/44/38 10/39/38
f 32/28/39 10/39/39 36/41/39
f 32/28/40 36/41/40 29/18/40
f 29/18/41 36/41/41 9/36/41
f 30/27/42 9/36/42 35/38/42
f 30/27/43 35/38/43 27/15/43
f 27/15/44 35/38/44 8/33/44
f 28/25/45 8/33/45 34/35/45
f 28/25/46 34/35/46 25/26/46
f 25/12/47 34/46/47 7/30/47
f 26/23/48 7/30/48 33/32/48
f 26/23/49 33/32/49 23/10/49
f 23/10/50 33/32/50 11/42/50
f 31/21/51 10/39/51 32/28/51
f 31/21/52 32/28/52 22/22/52
f 22/22/53 32/28/53 5/17/53
f 29/18/54 9/36/54 30/27/54
f 29/18/55 30/27/55 21/19/55
f 21/19/56 30/27/56 4/14/56
f 27/15/57 8/33/57 28/25/57
f 27/15/58 28/25/58 19/16/58
f 19/16/59 28/25/59 3/24/59
f 25/12/60 7/30/60 26/23/60
f 25/12/61 26/23/61 15/13/61
f 15/13/62 26/23/62 2/4/62
f 23/10/63 11/42/63 24/29/63
f 23/10/64 24/29/64 16/5/64
f 16/5/65 24/29/65 6/20/65
f 17/47/66 6/20/66 22/22/66
f 17/9/67 22/22/67 20/8/67
f 20/8/68 22/22/68 5/17/68
f 20/8/69 5/17/69 21/19/69
f 20/8/70 21/19/70 18/7/70
f 18/7/71 21/19/71 4/14/71
f 18/7/72 4/14/72 19/16/72
f 18/7/73 19/16/73 13/2/73
f 13/2/74 19/16/74 3/24/74
f 16/5/75 6/20/75 17/47/75
f 16/5/76 17/47/76 14/6/76
f 14/3/77 17/9/77 1/1/77
f 13/48/78 3/11/78 15/13/78
f 13/48/79 15/13/79 14/6/79
f 14/6/80 15/13/80 2/4/80
